<svg width="54" height="56" viewBox="0 0 54 56" fill="none" xmlns="http://www.w3.org/2000/svg">
<path d="M40 21.1464V48.5729H37.1805C36.5112 48.5729 36.0935 48.2439 35.9141 47.5728L35.5441 44.6219C34.3729 45.9389 33.0589 46.9998 31.6138 47.8046C30.1679 48.5972 28.5077 49 26.6315 49C25.1618 49 23.8715 48.7561 22.7488 48.256C21.6142 47.7681 20.682 47.0606 19.9174 46.1586C19.1528 45.2557 18.5914 44.1705 18.2087 42.89C17.826 41.6095 17.6355 40.1831 17.6355 38.6343V17.4021C17.6355 15.329 17.1694 13.7194 16.25 12.5727C15.3162 11.4267 13.895 10.8537 11.983 10.8537C10.5856 10.8537 9.28262 11.1949 8.07654 11.8781C6.87046 12.5613 5.74695 13.4877 4.71952 14.6709V34.8657H0V7.43926H2.80757C3.47691 7.43926 3.90647 7.76831 4.08591 8.43936L4.45591 11.4145C5.61515 10.0975 6.92921 9.03666 8.36238 8.21973C9.80904 7.41495 11.4812 7 13.3693 7C14.839 7 16.1293 7.2561 17.252 7.74399C18.3747 8.24404 19.3187 8.95157 20.0595 9.86575C20.8123 10.7678 21.3855 11.8659 21.7801 13.1465C22.1628 14.427 22.3653 15.8534 22.3653 17.4021L22.3534 34.8649V38.6327C22.3534 40.7058 22.8314 42.3154 23.7635 43.45C24.6957 44.5839 26.117 45.1577 28.0051 45.1577C29.3914 45.1577 30.6816 44.8286 31.8996 44.1576C33.1303 43.4865 34.253 42.5602 35.2805 41.3647V21.1464H40Z" fill="#2F3C7E"/>
</svg>
