<svg width="24" height="16" viewBox="0 0 24 16" fill="none" xmlns="http://www.w3.org/2000/svg">
<path d="M21.361 5.49897H3.47214C3.3027 5.49897 3.14019 5.43166 3.02038 5.31184C2.90056 5.19203 2.83325 5.02952 2.83325 4.86008C2.83325 4.69064 2.90056 4.52813 3.02038 4.40832C3.14019 4.2885 3.3027 4.22119 3.47214 4.22119H21.361C21.5305 4.22119 21.693 4.2885 21.8128 4.40832C21.9326 4.52813 21.9999 4.69064 21.9999 4.86008C21.9999 5.02952 21.9326 5.19203 21.8128 5.31184C21.693 5.43166 21.5305 5.49897 21.361 5.49897Z" fill="#2F3C7E"/>
<path d="M21.6333 11.779H11.3667C11.2694 11.779 11.1762 11.7116 11.1074 11.5916C11.0386 11.4715 11 11.3088 11 11.139C11 10.9693 11.0386 10.8065 11.1074 10.6865C11.1762 10.5665 11.2694 10.499 11.3667 10.499H21.6333C21.7306 10.499 21.8238 10.5665 21.8926 10.6865C21.9614 10.8065 22 10.9693 22 11.139C22 11.3088 21.9614 11.4715 21.8926 11.5916C21.8238 11.7116 21.7306 11.779 21.6333 11.779Z" fill="#2F3C7E"/>
</svg>
